<?xml version="1.0" standalone="no"?>
<!DOCTYPE svg PUBLIC "-//W3C//DTD SVG 20010904//EN"
 "http://www.w3.org/TR/2001/REC-SVG-20010904/DTD/svg10.dtd">
<svg version="1.0" xmlns="http://www.w3.org/2000/svg"
 width="1545.000000pt" height="348.000000pt" viewBox="0 0 1545.000000 348.000000"
 preserveAspectRatio="xMidYMid meet">

<g transform="translate(0.000000,348.000000) scale(0.100000,-0.100000)"
fill="#000000" stroke="none">
<path d="M880 2761 c0 -10 -27 -314 -60 -676 -33 -362 -60 -659 -60 -661 0 -2
-84 -5 -187 -6 l-188 -3 0 -190 c0 -178 2 -193 24 -243 30 -66 113 -144 177
-166 42 -14 124 -16 664 -16 701 0 672 -3 764 81 97 89 88 34 165 1025 l67
874 -683 0 c-659 0 -683 -1 -683 -19z m1230 -120 c0 -10 -27 -371 -60 -801
-67 -868 -62 -835 -139 -886 -97 -64 -224 -27 -272 81 -16 34 -19 67 -19 213
l0 172 -368 0 -368 0 57 618 c31 339 58 618 58 620 1 1 251 2 556 2 536 0 555
-1 555 -19z m-608 -1488 c3 -128 5 -142 30 -185 l27 -48 -452 0 c-509 0 -505
0 -563 76 -28 36 -29 42 -32 166 l-4 128 495 0 495 0 4 -137z"/>
<path d="M1220 2376 c0 -18 -3 -48 -6 -65 l-7 -31 314 2 314 3 3 63 3 62 -311
0 -310 0 0 -34z"/>
<path d="M1200 2146 c0 -7 -3 -34 -6 -60 l-7 -46 316 0 315 0 4 60 3 60 -312
0 c-257 0 -313 -2 -313 -14z"/>
<path d="M1176 1888 c-3 -13 -6 -40 -6 -60 l0 -38 64 0 63 0 7 38 c13 82 13
82 -58 82 -58 0 -64 -2 -70 -22z"/>
<path d="M1418 1850 l-3 -60 126 0 c142 0 139 -2 139 76 l0 44 -129 0 -129 0
-4 -60z"/>
<path d="M10842 1997 l3 -764 30 -49 c24 -37 45 -56 90 -79 56 -29 65 -30 207
-33 l148 -4 0 126 0 125 -67 3 c-62 3 -68 5 -74 28 -4 14 -7 337 -8 718 l-1
692 -165 0 -165 0 2 -763z"/>
<path d="M3773 2305 c-112 -30 -185 -81 -243 -167 l-40 -60 0 106 0 106 -160
0 -160 0 0 -830 0 -830 165 0 165 0 0 307 0 306 55 -61 c93 -102 223 -151 370
-138 222 18 371 153 437 395 30 110 30 372 0 482 -42 154 -133 284 -240 342
-98 53 -243 70 -349 42z m108 -268 c58 -30 113 -112 135 -197 23 -92 15 -283
-15 -361 -27 -70 -83 -136 -135 -160 -54 -24 -148 -24 -201 0 -111 50 -175
182 -175 361 0 173 57 302 158 355 66 34 170 35 233 2z"/>
<path d="M4995 2313 c-132 -18 -262 -80 -334 -159 -51 -55 -92 -130 -94 -173
-2 -24 0 -25 133 -47 74 -13 149 -26 167 -29 31 -5 32 -4 43 37 28 105 90 152
200 152 98 0 151 -35 175 -118 8 -27 15 -73 15 -101 l0 -52 -162 -6 c-241 -10
-359 -39 -476 -117 -111 -74 -157 -172 -150 -318 3 -72 9 -96 33 -140 57 -105
167 -173 313 -194 169 -25 315 22 415 132 l53 59 12 -34 c18 -48 82 -101 143
-119 33 -10 92 -16 156 -16 l103 0 0 125 0 125 -45 0 c-34 0 -47 5 -55 19 -6
12 -10 124 -10 293 0 295 -9 365 -53 461 -53 113 -147 181 -292 212 -65 13
-219 18 -290 8z m310 -733 c-3 -22 -7 -58 -10 -81 -3 -22 -16 -62 -30 -89 -87
-173 -358 -189 -404 -25 -15 54 1 108 47 157 56 60 118 77 275 78 l127 0 -5
-40z"/>
<path d="M7823 2305 c-119 -26 -203 -81 -265 -172 l-38 -55 0 106 0 106 -90 0
-90 0 0 -830 0 -830 95 0 95 0 0 317 0 316 32 -48 c55 -83 166 -145 295 -165
258 -40 488 140 549 430 21 99 21 301 0 400 -49 226 -192 385 -383 425 -82 18
-119 18 -200 0z m193 -180 c88 -43 153 -137 185 -265 8 -32 13 -107 13 -180 0
-187 -32 -286 -120 -380 -62 -67 -129 -95 -224 -94 -94 0 -151 24 -218 91 -85
86 -122 198 -122 379 0 182 30 289 107 374 73 81 149 112 257 105 47 -3 86
-12 122 -30z"/>
<path d="M9095 2314 c-11 -2 -45 -9 -75 -15 -188 -38 -346 -209 -395 -429 -21
-96 -22 -280 -1 -380 22 -103 76 -208 146 -284 103 -109 226 -159 395 -159
170 0 295 47 397 148 59 59 123 158 115 177 -2 8 -38 24 -78 37 -41 13 -79 26
-85 28 -6 2 -23 -20 -38 -50 -31 -63 -99 -131 -160 -157 -143 -64 -333 -15
-417 107 -39 56 -76 168 -80 243 l-4 55 449 3 449 2 -6 103 c-16 289 -152 487
-375 549 -67 18 -200 31 -237 22z m192 -184 c58 -25 120 -85 152 -149 19 -37
50 -148 51 -178 0 -10 -74 -13 -336 -13 l-336 0 6 38 c22 122 82 229 157 279
86 56 207 66 306 23z"/>
<path d="M10454 2310 c-102 -21 -201 -82 -260 -163 l-44 -59 0 101 0 101 -90
0 -90 0 0 -610 0 -610 94 0 95 0 3 378 c3 362 4 380 26 440 41 114 91 174 182
216 36 17 65 21 150 22 l105 0 11 80 c6 43 10 82 8 86 -5 8 -98 28 -127 27
-12 -1 -40 -5 -63 -9z"/>
<path d="M11936 2309 c-312 -52 -506 -294 -506 -629 0 -188 51 -326 164 -447
70 -75 144 -122 251 -159 71 -24 95 -28 205 -28 194 0 337 51 447 162 59 58
132 189 111 197 -34 12 -290 76 -293 73 -1 -2 -12 -22 -23 -44 -29 -57 -102
-119 -157 -133 -170 -43 -299 41 -339 220 -9 37 -16 73 -16 78 0 8 136 11 432
11 l431 0 -6 103 c-16 265 -121 454 -301 542 -117 57 -266 77 -400 54z m209
-248 c22 -10 52 -31 67 -47 31 -34 73 -123 82 -176 l7 -38 -257 0 -257 0 6 35
c8 50 53 145 85 179 40 43 98 66 167 66 37 0 75 -7 100 -19z"/>
<path d="M13183 2310 c-78 -14 -179 -56 -233 -95 -147 -108 -186 -339 -79
-468 67 -81 147 -113 388 -158 212 -39 252 -58 271 -130 13 -48 -4 -94 -49
-132 -39 -32 -89 -47 -162 -47 -123 0 -216 55 -240 142 -6 24 -13 48 -14 54
-2 8 -51 2 -155 -19 l-152 -30 6 -30 c14 -67 59 -147 115 -200 112 -107 241
-150 451 -151 111 0 149 4 215 23 146 41 245 115 294 221 22 47 26 68 25 150
0 113 -13 148 -78 218 -68 73 -153 108 -360 149 -181 35 -252 62 -274 104 -15
28 -10 93 10 116 45 55 200 73 283 33 46 -22 95 -87 95 -124 0 -9 6 -19 13
-22 10 -4 135 20 275 51 30 7 28 30 -8 102 -53 106 -165 189 -306 228 -71 19
-259 28 -331 15z"/>
<path d="M14418 2310 c-253 -46 -388 -190 -376 -398 6 -92 28 -142 89 -196 71
-65 154 -93 402 -136 180 -31 227 -64 227 -156 0 -40 -5 -51 -38 -84 -43 -43
-92 -60 -173 -60 -129 0 -215 54 -244 154 l-16 53 -150 -30 -151 -30 7 -36
c18 -102 104 -211 211 -268 106 -57 201 -77 354 -77 211 0 344 47 444 155 65
70 90 135 91 234 0 94 -20 156 -67 210 -75 85 -162 123 -368 160 -229 41 -290
74 -290 155 0 75 67 121 179 122 38 0 84 -5 104 -11 46 -16 104 -80 113 -125
3 -20 11 -36 18 -36 20 0 287 58 293 63 9 10 -28 105 -57 145 -57 79 -161 145
-276 177 -70 19 -259 28 -326 15z"/>
<path d="M6070 1648 l258 -642 -14 -40 c-31 -86 -31 -86 -159 -86 l-115 0 0
-126 0 -126 173 4 c147 3 178 6 217 24 65 30 107 69 136 127 14 27 152 375
306 771 154 397 282 724 285 729 2 4 -81 7 -185 7 l-189 0 -143 -447 c-78
-247 -146 -454 -150 -462 -5 -9 -17 14 -33 65 -53 161 -267 835 -267 839 0 3
-85 5 -189 5 l-190 0 259 -642z"/>
</g>
</svg>
